<?xml version="1.0" encoding="utf-8"?>
<!-- Generator: Adobe Illustrator 19.0.0, SVG Export Plug-In . SVG Version: 6.00 Build 0)  -->
<svg version="1.1" id="Layer_1" xmlns="http://www.w3.org/2000/svg" xmlns:xlink="http://www.w3.org/1999/xlink" x="0px" y="0px"
	 viewBox="0 0 280 100" style="enable-background:new 0 0 280 100;" xml:space="preserve">
<style type="text/css">
	.st0{fill:#231F20;}
</style>
<g id="XMLID_2_">
	<g id="XMLID_182_">
		<g id="XMLID_201_">
			<g id="XMLID_202_">
				<path id="XMLID_203_" class="st0" d="M145.1,65.4c0,0.4-0.2,0.6-0.6,0.6h-11.4c-0.4,0-0.7-0.3-0.7-0.6s0.2-0.6,0.7-0.6h1.9V38.1
					l0,0.3l-10.6,27.9c-0.1,0.3-0.4,0.5-0.6,0.5c-0.2,0-0.5-0.1-0.6-0.4l-13.1-28.1v26.5h3.7c0.4,0,0.6,0.3,0.6,0.6
					c0,0.4-0.2,0.6-0.6,0.6h-8.3c-0.4,0-0.6-0.3-0.6-0.6c0-0.3,0.2-0.6,0.6-0.6h3.2v-29h-2.5c-0.4,0-0.7-0.3-0.7-0.6
					c0-0.4,0.3-0.6,0.7-0.6h9.3c0.4,0,0.6,0.2,0.8,0.5l10.2,21.8l8.3-21.8c0.1-0.4,0.4-0.5,0.8-0.5h8.5c0.4,0,0.6,0.3,0.6,0.6
					c0,0.4-0.2,0.6-0.6,0.6H142v29h2.5C144.9,64.8,145.1,65.1,145.1,65.4z"/>
			</g>
		</g>
		<g id="XMLID_197_">
			<g id="XMLID_198_">
				<path id="XMLID_199_" class="st0" d="M179.5,35.2c0,0.4-0.3,0.7-0.6,0.7h-1.3v17.9c0,7.2-5.8,13-13,13c-7.2,0-13-5.9-13-13V35.8
					h-2.1c-0.4,0-0.6-0.3-0.6-0.6c0-0.4,0.3-0.6,0.6-0.6H161c0.4,0,0.6,0.3,0.6,0.6c0,0.4-0.3,0.6-0.6,0.6h-2.1V64
					c1.7,0.9,3.6,1.4,5.6,1.4c2,0,4-0.5,5.6-1.4V35.8h-2.6c-0.4,0-0.7-0.3-0.7-0.7c0-0.4,0.4-0.6,0.7-0.6h11.4
					C179.2,34.6,179.5,34.8,179.5,35.2z"/>
			</g>
		</g>
		<g id="XMLID_193_">
			<g id="XMLID_194_">
				<path id="XMLID_195_" class="st0" d="M211.5,35.2c0,0.4-0.3,0.6-0.6,0.6h-3.1v29.6c0,0.9-0.2,1.4-0.6,1.4
					c-0.4,0-0.8-0.3-1.2-0.9L186.7,38v26.8h4.1c0.4,0,0.7,0.3,0.7,0.6c0,0.4-0.3,0.6-0.7,0.6h-8.3c-0.3,0-0.6-0.2-0.6-0.6
					c0-0.4,0.3-0.6,0.6-0.6h2.8v-29h-2.5c-0.3,0-0.6-0.3-0.6-0.6c0-0.4,0.3-0.6,0.6-0.6h9.6c0.1,0,0.3,0,0.4,0.2l13.6,19.7V35.8h-3
					c-0.4,0-0.7-0.3-0.7-0.6c0-0.4,0.3-0.6,0.7-0.6h7.4C211.2,34.6,211.5,34.8,211.5,35.2z"/>
			</g>
		</g>
		<g id="XMLID_188_">
			<g id="XMLID_189_">
				<path id="XMLID_190_" class="st0" d="M244.6,50.3c0,9.5-6.3,15.8-15.7,15.8h-13c-0.4,0-0.6-0.2-0.6-0.6c0-0.4,0.3-0.6,0.6-0.6
					h2.5v-29h-2.2c-0.4,0-0.6-0.3-0.6-0.6c0-0.4,0.3-0.6,0.6-0.6h12.7C238.3,34.6,244.6,40.8,244.6,50.3z M228.9,64.8
					c3.1,0,5.8-0.7,8-2.1V37.9c-2.2-1.3-4.9-2.1-8-2.1h-3.6v29H228.9z"/>
			</g>
		</g>
		<g id="XMLID_183_">
			<g id="XMLID_184_">
				<path id="XMLID_185_" class="st0" d="M279.9,50.3c0,9.8-6.5,16.4-16.3,16.4c-9.8,0-16.3-6.6-16.3-16.4c0-9.9,6.5-16.5,16.3-16.5
					C273.4,33.9,279.9,40.5,279.9,50.3z M263.6,65.5c3.1,0,5.8-0.7,8-2V37.1c-2.2-1.3-4.9-2-8-2s-5.8,0.7-8.1,2v26.4
					C257.8,64.8,260.6,65.5,263.6,65.5z"/>
			</g>
		</g>
	</g>
	<g id="XMLID_119_">
		<g id="XMLID_151_">
			<g id="XMLID_167_">
				<g id="XMLID_177_">
					<g id="XMLID_178_">
						<path id="XMLID_179_" class="st0" d="M79.2,20.3l-33.7-5.7l-34.3,5.7l1-1.1C21,10,32.7,5,45.2,5c12.6,0,24.3,5,32.9,14.2
							L79.2,20.3z M45.2,6c-11.8,0-22.8,4.5-31.1,12.8l31.4-5.3l0.1,0l30.7,5.2C68,10.5,57,6,45.2,6z"/>
					</g>
				</g>
				<g id="XMLID_174_">
					<g id="XMLID_175_">
						<rect id="XMLID_176_" x="45.1" y="5.7" class="st0" width="1" height="8.3"/>
					</g>
				</g>
				<g id="XMLID_171_">
					<g id="XMLID_172_">
						
							<rect id="XMLID_173_" x="26.2" y="11.3" transform="matrix(0.9743 0.2252 -0.2252 0.9743 3.5928 -7.8069)" class="st0" width="19.6" height="1"/>
					</g>
				</g>
				<g id="XMLID_168_">
					<g id="XMLID_169_">
						
							<rect id="XMLID_170_" x="54.9" y="2.1" transform="matrix(0.19 0.9818 -0.9818 0.19 56.8071 -44.575)" class="st0" width="1" height="20.1"/>
					</g>
				</g>
			</g>
			<g id="XMLID_152_">
				<g id="XMLID_162_">
					<g id="XMLID_163_">
						<path id="XMLID_164_" class="st0" d="M45.2,95.7c-12.6,0-24.3-5-32.9-14.2l-1.1-1.1l33.7,5.7l34.3-5.7l-1,1.1
							C69.5,90.6,57.8,95.7,45.2,95.7z M14.1,81.9c8.3,8.2,19.3,12.8,31.1,12.8c11.8,0,22.8-4.5,31.1-12.8l-31.4,5.3l-0.1,0
							L14.1,81.9z"/>
					</g>
				</g>
				<g id="XMLID_159_">
					<g id="XMLID_160_">
						<rect id="XMLID_161_" x="44.4" y="86.6" class="st0" width="1" height="8.3"/>
					</g>
				</g>
				<g id="XMLID_156_">
					<g id="XMLID_157_">
						
							<rect id="XMLID_158_" x="44.7" y="88.3" transform="matrix(0.9743 0.2252 -0.2252 0.9743 21.3989 -9.9877)" class="st0" width="19.6" height="1"/>
					</g>
				</g>
				<g id="XMLID_153_">
					<g id="XMLID_154_">
						
							<rect id="XMLID_155_" x="34.6" y="78.5" transform="matrix(0.19 0.9818 -0.9818 0.19 115.3161 37.2512)" class="st0" width="1" height="20.1"/>
					</g>
				</g>
			</g>
		</g>
		<g id="XMLID_120_">
			<g id="XMLID_136_">
				<g id="XMLID_146_">
					<g id="XMLID_147_">
						<path id="XMLID_148_" class="st0" d="M75.3,84.3L81,50.6l-5.7-34.3l1.1,1c9.2,8.7,14.2,20.4,14.2,32.9
							c0,12.6-5,24.3-14.2,32.9L75.3,84.3z M76.8,19.2L82,50.6l0,0.1l-5.2,30.7c8.2-8.3,12.8-19.3,12.8-31.1
							C89.6,38.5,85,27.6,76.8,19.2z"/>
					</g>
				</g>
				<g id="XMLID_143_">
					<g id="XMLID_144_">
						<rect id="XMLID_145_" x="81.5" y="50.1" class="st0" width="8.3" height="1"/>
					</g>
				</g>
				<g id="XMLID_140_">
					<g id="XMLID_141_">
						
							<rect id="XMLID_142_" x="83.2" y="31.3" transform="matrix(0.9743 0.2254 -0.2254 0.9743 11.4179 -17.8153)" class="st0" width="1" height="19.6"/>
					</g>
				</g>
				<g id="XMLID_137_">
					<g id="XMLID_138_">
						
							<rect id="XMLID_139_" x="73.4" y="60" transform="matrix(0.1907 0.9817 -0.9817 0.1907 126.9116 -32.9454)" class="st0" width="20.1" height="1"/>
					</g>
				</g>
			</g>
			<g id="XMLID_121_">
				<g id="XMLID_131_">
					<g id="XMLID_132_">
						<path id="XMLID_133_" class="st0" d="M15.2,84.3l-1.1-1C5,74.6-0.1,62.9-0.1,50.3c0-12.6,5-24.3,14.2-32.9l1.1-1.1L9.5,50
							L15.2,84.3z M13.7,19.2C5.5,27.6,0.9,38.6,0.9,50.3c0,11.8,4.5,22.8,12.8,31.1L8.5,50l0-0.1L13.7,19.2z"/>
					</g>
				</g>
				<g id="XMLID_128_">
					<g id="XMLID_129_">
						<rect id="XMLID_130_" x="0.6" y="49.5" class="st0" width="8.3" height="1"/>
					</g>
				</g>
				<g id="XMLID_125_">
					<g id="XMLID_126_">
						
							<rect id="XMLID_127_" x="6.3" y="49.8" transform="matrix(0.9743 0.2254 -0.2254 0.9743 13.598 6.834151e-003)" class="st0" width="1" height="19.6"/>
					</g>
				</g>
				<g id="XMLID_122_">
					<g id="XMLID_123_">
						
							<rect id="XMLID_124_" x="-3" y="39.6" transform="matrix(0.1906 0.9817 -0.9817 0.1906 45.139 25.5695)" class="st0" width="20.1" height="1"/>
					</g>
				</g>
			</g>
		</g>
	</g>
	<g id="XMLID_55_">
		<g id="XMLID_115_">
			<g id="XMLID_116_">
				<path id="XMLID_117_" class="st0" d="M105.8,5.2h5.6c0,0.1,0,0.1,0,0.2c0,0.1,0,0.2,0,0.3c0,0.1,0,0.2,0,0.3c0,0.1,0,0.2,0,0.2
					h-4.5v3.8h3.9c0,0.1,0,0.1,0,0.2c0,0.1,0,0.2,0,0.3c0,0.1,0,0.2,0,0.3c0,0.1,0,0.2,0,0.2h-3.9v5.5c-0.1,0-0.2,0-0.3,0
					c-0.1,0-0.2,0-0.3,0c-0.1,0-0.2,0-0.3,0c-0.1,0-0.2,0-0.2,0V5.2z"/>
			</g>
		</g>
		<g id="XMLID_110_">
			<g id="XMLID_111_">
				<path id="XMLID_112_" class="st0" d="M118,5.2c0.1,0,0.2,0,0.3,0c0.1,0,0.2,0,0.3,0c0.1,0,0.2,0,0.4,0c0.1,0,0.2,0,0.3,0
					l3.8,11.3c-0.1,0-0.2,0-0.3,0c-0.1,0-0.2,0-0.3,0c-0.1,0-0.2,0-0.3,0c-0.1,0-0.2,0-0.3,0l-0.9-2.9h-4.7l-0.9,2.9
					c-0.1,0-0.2,0-0.3,0c-0.1,0-0.2,0-0.3,0c-0.1,0-0.2,0-0.3,0c-0.1,0-0.2,0-0.3,0L118,5.2z M120.6,12.7l-2-6.3l-2,6.3H120.6z"/>
			</g>
		</g>
		<g id="XMLID_106_">
			<g id="XMLID_107_">
				<path id="XMLID_108_" class="st0" d="M127,15.3c0.1,0,0.3,0.1,0.5,0.1c0.2,0,0.3,0.1,0.5,0.1c0.2,0,0.4,0.1,0.7,0.1
					c0.2,0,0.5,0,0.8,0c0.5,0,0.9-0.1,1.3-0.2c0.4-0.1,0.7-0.3,0.9-0.5c0.2-0.2,0.4-0.4,0.5-0.7c0.1-0.3,0.2-0.6,0.2-0.9
					c0-0.3,0-0.6-0.1-0.8c-0.1-0.2-0.2-0.4-0.4-0.6c-0.2-0.2-0.5-0.4-0.8-0.5c-0.3-0.2-0.8-0.4-1.3-0.6c-0.4-0.1-0.7-0.3-1-0.4
					c-0.3-0.2-0.6-0.3-0.9-0.6c-0.3-0.2-0.5-0.5-0.6-0.8s-0.2-0.7-0.2-1.2c0-0.8,0.3-1.5,0.9-2.1c0.6-0.5,1.5-0.8,2.7-0.8
					c0.2,0,0.5,0,0.7,0c0.2,0,0.5,0,0.7,0.1c0.2,0,0.4,0.1,0.6,0.1c0.2,0,0.3,0.1,0.4,0.1c0,0.2,0,0.3-0.1,0.5
					c0,0.2-0.1,0.3-0.1,0.5c-0.3-0.1-0.6-0.2-1-0.2C131.4,6,131,6,130.6,6c-0.9,0-1.5,0.2-1.9,0.5c-0.4,0.4-0.6,0.8-0.6,1.4
					c0,0.3,0.1,0.5,0.2,0.7c0.1,0.2,0.3,0.4,0.5,0.6c0.2,0.2,0.4,0.3,0.7,0.4c0.3,0.1,0.6,0.3,0.9,0.4c0.4,0.2,0.9,0.4,1.2,0.6
					c0.4,0.2,0.7,0.4,1,0.7c0.3,0.3,0.5,0.5,0.6,0.9c0.2,0.3,0.2,0.8,0.2,1.2c0,0.5-0.1,1-0.3,1.5c-0.2,0.4-0.5,0.8-0.8,1.1
					c-0.4,0.3-0.8,0.5-1.3,0.7c-0.5,0.2-1.1,0.2-1.7,0.2c-0.6,0-1.1,0-1.5-0.1c-0.4-0.1-0.8-0.2-1.2-0.3c0-0.2,0.1-0.3,0.1-0.5
					C126.9,15.6,127,15.5,127,15.3z"/>
			</g>
		</g>
		<g id="XMLID_102_">
			<g id="XMLID_103_">
				<path id="XMLID_104_" class="st0" d="M138.5,5.2c0.1,0,0.2,0,0.3,0c0.1,0,0.2,0,0.3,0c0.1,0,0.2,0,0.3,0c0.1,0,0.2,0,0.3,0v4.8
					h5.6V5.2c0.1,0,0.2,0,0.3,0c0.1,0,0.2,0,0.3,0c0.1,0,0.2,0,0.3,0c0.1,0,0.2,0,0.3,0v11.3c-0.1,0-0.1,0-0.2,0c-0.1,0-0.2,0-0.3,0
					c-0.1,0-0.2,0-0.3,0c-0.1,0-0.2,0-0.3,0v-5.5h-5.6v5.5c-0.1,0-0.2,0-0.3,0c-0.1,0-0.2,0-0.3,0c-0.1,0-0.2,0-0.3,0
					c-0.1,0-0.2,0-0.2,0V5.2z"/>
			</g>
		</g>
		<g id="XMLID_98_">
			<g id="XMLID_99_">
				<path id="XMLID_100_" class="st0" d="M152,5.2c0.1,0,0.2,0,0.3,0c0.1,0,0.2,0,0.3,0c0.1,0,0.2,0,0.3,0c0.1,0,0.2,0,0.3,0v11.3
					c-0.1,0-0.2,0-0.3,0c-0.1,0-0.2,0-0.3,0c-0.1,0-0.2,0-0.3,0c-0.1,0-0.2,0-0.2,0V5.2z"/>
			</g>
		</g>
		<g id="XMLID_93_">
			<g id="XMLID_94_">
				<path id="XMLID_95_" class="st0" d="M162.9,16.8c-0.8,0-1.5-0.1-2.1-0.4c-0.6-0.3-1.1-0.7-1.5-1.2c-0.4-0.5-0.7-1.1-0.9-1.9
					c-0.2-0.7-0.3-1.5-0.3-2.4c0-0.9,0.1-1.6,0.3-2.3c0.2-0.7,0.5-1.3,0.9-1.9c0.4-0.5,0.9-0.9,1.5-1.2c0.6-0.3,1.3-0.4,2.1-0.4
					c0.8,0,1.5,0.1,2.1,0.4c0.6,0.3,1.1,0.7,1.5,1.2c0.4,0.5,0.7,1.1,0.9,1.9c0.2,0.7,0.3,1.5,0.3,2.3c0,0.8-0.1,1.6-0.3,2.4
					c-0.2,0.7-0.5,1.3-0.9,1.9c-0.4,0.5-0.9,0.9-1.5,1.2C164.3,16.6,163.7,16.8,162.9,16.8z M162.9,15.8c0.6,0,1.1-0.1,1.6-0.4
					c0.4-0.2,0.8-0.6,1.1-1c0.3-0.4,0.5-0.9,0.7-1.5c0.1-0.6,0.2-1.3,0.2-2s-0.1-1.4-0.2-2c-0.1-0.6-0.4-1.1-0.7-1.5
					c-0.3-0.4-0.7-0.8-1.1-1c-0.4-0.2-1-0.4-1.6-0.4c-0.6,0-1.1,0.1-1.6,0.4c-0.4,0.2-0.8,0.6-1.1,1c-0.3,0.4-0.5,0.9-0.6,1.5
					s-0.2,1.3-0.2,2s0.1,1.4,0.2,2s0.4,1.1,0.6,1.5c0.3,0.4,0.7,0.8,1.1,1C161.7,15.7,162.3,15.8,162.9,15.8z"/>
			</g>
		</g>
		<g id="XMLID_89_">
			<g id="XMLID_90_">
				<path id="XMLID_91_" class="st0" d="M172.7,5.2c0.1,0,0.2,0,0.3,0c0.1,0,0.2,0,0.3,0c0.1,0,0.2,0,0.3,0c0.1,0,0.2,0,0.3,0
					l5.4,9.5V5.2c0.1,0,0.2,0,0.2,0c0.1,0,0.2,0,0.3,0c0.1,0,0.2,0,0.3,0c0.1,0,0.2,0,0.3,0v11.3c-0.1,0-0.2,0-0.3,0
					c-0.1,0-0.2,0-0.3,0c-0.1,0-0.2,0-0.3,0c-0.1,0-0.2,0-0.3,0l-5.4-9.4v9.4c-0.1,0-0.2,0-0.2,0c-0.1,0-0.2,0-0.3,0
					c-0.1,0-0.2,0-0.3,0c-0.1,0-0.2,0-0.2,0V5.2z"/>
			</g>
		</g>
		<g id="XMLID_84_">
			<g id="XMLID_85_">
				<path id="XMLID_86_" class="st0" d="M192.5,5.2c0.1,0,0.3,0,0.5-0.1c0.2,0,0.4,0,0.7-0.1c0.2,0,0.5,0,0.7,0c0.2,0,0.5,0,0.7,0
					c1,0,1.8,0.1,2.6,0.4c0.7,0.3,1.3,0.6,1.8,1.1c0.5,0.5,0.8,1.1,1.1,1.8c0.2,0.7,0.3,1.5,0.3,2.4c0,3.9-1.9,5.9-5.8,5.9
					c-0.2,0-0.5,0-0.7,0c-0.3,0-0.5,0-0.7,0c-0.2,0-0.5,0-0.7-0.1c-0.2,0-0.4,0-0.5-0.1V5.2z M193.6,15.6c0.2,0,0.4,0,0.7,0.1
					c0.3,0,0.5,0,0.8,0c0.7,0,1.4-0.1,2-0.2c0.6-0.2,1.1-0.4,1.5-0.8c0.4-0.4,0.7-0.9,0.9-1.5c0.2-0.6,0.3-1.4,0.3-2.3
					c0-1.6-0.4-2.8-1.3-3.6c-0.8-0.8-2-1.1-3.5-1.1c-0.2,0-0.5,0-0.8,0c-0.3,0-0.5,0-0.7,0.1V15.6z"/>
			</g>
		</g>
		<g id="XMLID_80_">
			<g id="XMLID_81_">
				<path id="XMLID_82_" class="st0" d="M206,5.2h6.1c0,0.1,0,0.1,0,0.2c0,0.1,0,0.2,0,0.3c0,0.1,0,0.2,0,0.3c0,0.1,0,0.2,0,0.2h-5
					v3.8h4c0,0.1,0,0.1,0,0.2c0,0.1,0,0.2,0,0.3c0,0.1,0,0.2,0,0.3c0,0.1,0,0.2,0,0.2h-4v4.5h5.1c0,0.1,0,0.1,0,0.2
					c0,0.1,0,0.2,0,0.3c0,0.1,0,0.2,0,0.3c0,0.1,0,0.2,0,0.2H206V5.2z"/>
			</g>
		</g>
		<g id="XMLID_76_">
			<g id="XMLID_77_">
				<path id="XMLID_78_" class="st0" d="M216.7,15.3c0.1,0,0.3,0.1,0.5,0.1c0.2,0,0.3,0.1,0.5,0.1c0.2,0,0.4,0.1,0.7,0.1
					c0.2,0,0.5,0,0.8,0c0.5,0,0.9-0.1,1.3-0.2c0.4-0.1,0.7-0.3,0.9-0.5c0.2-0.2,0.4-0.4,0.5-0.7c0.1-0.3,0.2-0.6,0.2-0.9
					c0-0.3,0-0.6-0.1-0.8c-0.1-0.2-0.2-0.4-0.4-0.6c-0.2-0.2-0.5-0.4-0.8-0.5c-0.3-0.2-0.8-0.4-1.3-0.6c-0.4-0.1-0.7-0.3-1-0.4
					c-0.3-0.2-0.6-0.3-0.9-0.6c-0.3-0.2-0.5-0.5-0.6-0.8c-0.1-0.3-0.2-0.7-0.2-1.2c0-0.8,0.3-1.5,0.9-2.1c0.6-0.5,1.5-0.8,2.7-0.8
					c0.2,0,0.5,0,0.7,0c0.2,0,0.5,0,0.7,0.1c0.2,0,0.4,0.1,0.6,0.1c0.2,0,0.3,0.1,0.4,0.1c0,0.2,0,0.3-0.1,0.5
					c0,0.2-0.1,0.3-0.1,0.5c-0.3-0.1-0.6-0.2-1-0.2C221,6,220.7,6,220.3,6c-0.9,0-1.5,0.2-1.9,0.5c-0.4,0.4-0.6,0.8-0.6,1.4
					c0,0.3,0.1,0.5,0.2,0.7c0.1,0.2,0.3,0.4,0.5,0.6c0.2,0.2,0.4,0.3,0.7,0.4c0.3,0.1,0.6,0.3,0.9,0.4c0.4,0.2,0.9,0.4,1.2,0.6
					c0.4,0.2,0.7,0.4,1,0.7c0.3,0.3,0.5,0.5,0.6,0.9c0.2,0.3,0.2,0.8,0.2,1.2c0,0.5-0.1,1-0.3,1.5c-0.2,0.4-0.5,0.8-0.8,1.1
					c-0.4,0.3-0.8,0.5-1.3,0.7c-0.5,0.2-1.1,0.2-1.7,0.2c-0.6,0-1.1,0-1.5-0.1c-0.4-0.1-0.8-0.2-1.2-0.3c0-0.2,0.1-0.3,0.1-0.5
					C216.5,15.6,216.6,15.5,216.7,15.3z"/>
			</g>
		</g>
		<g id="XMLID_72_">
			<g id="XMLID_73_">
				<path id="XMLID_74_" class="st0" d="M228.1,5.2c0.1,0,0.2,0,0.3,0c0.1,0,0.2,0,0.3,0c0.1,0,0.2,0,0.3,0c0.1,0,0.2,0,0.3,0v11.3
					c-0.1,0-0.2,0-0.3,0c-0.1,0-0.2,0-0.3,0c-0.1,0-0.2,0-0.3,0c-0.1,0-0.2,0-0.2,0V5.2z"/>
			</g>
		</g>
		<g id="XMLID_68_">
			<g id="XMLID_69_">
				<path id="XMLID_70_" class="st0" d="M241.7,10.7c0.1,0,0.2,0,0.3,0c0.1,0,0.2,0,0.3,0c0.1,0,0.2,0,0.3,0c0.1,0,0.2,0,0.3,0v5.5
					c-0.2,0.1-0.4,0.2-0.6,0.2c-0.2,0.1-0.5,0.1-0.8,0.2c-0.3,0-0.6,0.1-0.9,0.1c-0.3,0-0.6,0-0.9,0c-0.8,0-1.5-0.1-2.1-0.4
					c-0.7-0.2-1.2-0.6-1.7-1.1c-0.5-0.5-0.8-1.1-1.1-1.8c-0.3-0.7-0.4-1.5-0.4-2.5c0-0.9,0.1-1.8,0.4-2.5c0.3-0.7,0.6-1.4,1.1-1.9
					c0.5-0.5,1-0.9,1.7-1.2c0.6-0.3,1.3-0.4,2.1-0.4c0.7,0,1.2,0,1.7,0.1c0.4,0.1,0.8,0.2,1.1,0.3c0,0.2-0.1,0.4-0.1,0.5
					c0,0.1-0.1,0.3-0.2,0.5c-0.2-0.1-0.5-0.2-0.9-0.3S240.2,6,239.6,6c-0.6,0-1.1,0.1-1.7,0.3c-0.5,0.2-0.9,0.6-1.3,1
					c-0.4,0.4-0.6,1-0.9,1.6c-0.2,0.6-0.3,1.3-0.3,2.1c0,0.8,0.1,1.5,0.3,2.1c0.2,0.6,0.5,1.1,0.9,1.5c0.4,0.4,0.8,0.7,1.3,0.9
					c0.5,0.2,1.1,0.3,1.6,0.3c0.5,0,0.9,0,1.2-0.1c0.3,0,0.6-0.1,0.8-0.2V10.7z"/>
			</g>
		</g>
		<g id="XMLID_64_">
			<g id="XMLID_65_">
				<path id="XMLID_66_" class="st0" d="M248.3,5.2c0.1,0,0.2,0,0.3,0c0.1,0,0.2,0,0.3,0c0.1,0,0.2,0,0.3,0c0.1,0,0.2,0,0.3,0
					l5.4,9.5V5.2c0.1,0,0.2,0,0.2,0c0.1,0,0.2,0,0.3,0c0.1,0,0.2,0,0.3,0c0.1,0,0.2,0,0.3,0v11.3c-0.1,0-0.2,0-0.3,0
					c-0.1,0-0.2,0-0.3,0c-0.1,0-0.2,0-0.3,0c-0.1,0-0.2,0-0.3,0l-5.4-9.4v9.4c-0.1,0-0.2,0-0.2,0c-0.1,0-0.2,0-0.3,0
					c-0.1,0-0.2,0-0.3,0c-0.1,0-0.2,0-0.2,0V5.2z"/>
			</g>
		</g>
		<g id="XMLID_60_">
			<g id="XMLID_61_">
				<path id="XMLID_62_" class="st0" d="M261.7,5.2h6.1c0,0.1,0,0.1,0,0.2c0,0.1,0,0.2,0,0.3c0,0.1,0,0.2,0,0.3c0,0.1,0,0.2,0,0.2
					h-5v3.8h4c0,0.1,0,0.1,0,0.2c0,0.1,0,0.2,0,0.3c0,0.1,0,0.2,0,0.3c0,0.1,0,0.2,0,0.2h-4v4.5h5.1c0,0.1,0,0.1,0,0.2
					c0,0.1,0,0.2,0,0.3c0,0.1,0,0.2,0,0.3c0,0.1,0,0.2,0,0.2h-6.2V5.2z"/>
			</g>
		</g>
		<g id="XMLID_56_">
			<g id="XMLID_57_">
				<path id="XMLID_58_" class="st0" d="M272.7,5.2c0.2,0,0.4,0,0.6-0.1c0.2,0,0.3,0,0.5,0c0.2,0,0.3,0,0.5,0c0.2,0,0.4,0,0.6,0
					c0.5,0,1,0,1.5,0.2c0.5,0.1,0.9,0.3,1.3,0.5c0.4,0.3,0.7,0.6,0.9,1s0.4,1,0.4,1.6c0,0.4-0.1,0.8-0.2,1.1
					c-0.1,0.3-0.3,0.6-0.6,0.9c-0.2,0.3-0.5,0.5-0.8,0.7c-0.3,0.2-0.6,0.4-1,0.5l-0.1,0l3.6,4.9c-0.1,0-0.2,0-0.3,0
					c-0.1,0-0.2,0-0.3,0c-0.1,0-0.2,0-0.3,0c-0.1,0-0.2,0-0.3,0l-4-5.2v-0.1l0.3-0.1c0.4-0.1,0.7-0.2,1-0.4c0.3-0.2,0.6-0.3,0.9-0.6
					c0.3-0.2,0.5-0.5,0.6-0.8c0.2-0.3,0.2-0.6,0.2-1c0-0.8-0.3-1.4-0.8-1.8c-0.5-0.4-1.2-0.6-2-0.6c-0.2,0-0.4,0-0.6,0
					c-0.2,0-0.4,0-0.7,0.1v10.5c-0.1,0-0.2,0-0.3,0c-0.1,0-0.2,0-0.3,0c-0.1,0-0.2,0-0.3,0c-0.1,0-0.2,0-0.3,0V5.2z"/>
			</g>
		</g>
	</g>
	<g id="XMLID_3_">
		<g id="XMLID_51_">
			<g id="XMLID_52_">
				<path id="XMLID_53_" class="st0" d="M106.3,83.7c0.1,0,0.2,0,0.3,0c0.1,0,0.3,0,0.4,0s0.2,0,0.4,0c0.1,0,0.2,0,0.3,0l3.2,7.7
					l3.2-7.7c0.1,0,0.2,0,0.3,0c0.1,0,0.3,0,0.4,0c0.1,0,0.2,0,0.4,0c0.1,0,0.2,0,0.3,0l0.6,11.5c-0.1,0-0.2,0-0.3,0
					c-0.1,0-0.2,0-0.3,0c-0.1,0-0.2,0-0.3,0c-0.1,0-0.2,0-0.2,0l-0.4-9.8l-3.2,7.4c-0.1,0-0.2,0-0.2,0c-0.1,0-0.2,0-0.2,0
					c-0.1,0-0.1,0-0.2,0c-0.1,0-0.1,0-0.2,0l-3.1-7.4l-0.5,9.8c-0.1,0-0.2,0-0.3,0c-0.1,0-0.2,0-0.3,0c-0.1,0-0.2,0-0.3,0
					c-0.1,0-0.2,0-0.2,0L106.3,83.7z"/>
			</g>
		</g>
		<g id="XMLID_46_">
			<g id="XMLID_47_">
				<path id="XMLID_48_" class="st0" d="M125.5,83.7c0.1,0,0.2,0,0.3,0c0.1,0,0.2,0,0.4,0c0.1,0,0.2,0,0.4,0c0.1,0,0.2,0,0.3,0
					l3.9,11.5c-0.1,0-0.2,0-0.3,0c-0.1,0-0.2,0-0.3,0c-0.1,0-0.2,0-0.3,0c-0.1,0-0.2,0-0.3,0l-1-2.9h-4.8l-0.9,2.9
					c-0.1,0-0.2,0-0.3,0c-0.1,0-0.2,0-0.3,0c-0.1,0-0.2,0-0.3,0c-0.1,0-0.2,0-0.3,0L125.5,83.7z M128.2,91.2l-2.1-6.4l-2,6.4H128.2z
					"/>
			</g>
		</g>
		<g id="XMLID_41_">
			<g id="XMLID_42_">
				<path id="XMLID_43_" class="st0" d="M136.5,83.7c0.1,0,0.3,0,0.6-0.1c0.2,0,0.5,0,0.7-0.1c0.2,0,0.5,0,0.7,0c0.2,0,0.5,0,0.7,0
					c1,0,1.9,0.1,2.6,0.4c0.7,0.3,1.4,0.7,1.8,1.2c0.5,0.5,0.8,1.1,1.1,1.9c0.2,0.7,0.4,1.6,0.4,2.5c0,4-2,6-5.9,6
					c-0.2,0-0.5,0-0.7,0c-0.3,0-0.5,0-0.7,0c-0.2,0-0.5,0-0.7-0.1c-0.2,0-0.4,0-0.5-0.1V83.7z M137.6,94.2c0.2,0,0.4,0,0.7,0.1
					c0.3,0,0.5,0,0.8,0c0.7,0,1.4-0.1,2-0.2c0.6-0.2,1.1-0.4,1.5-0.8c0.4-0.4,0.7-0.9,1-1.5c0.2-0.6,0.3-1.4,0.3-2.4
					c0-1.7-0.4-2.9-1.3-3.7c-0.9-0.8-2-1.2-3.5-1.2c-0.2,0-0.5,0-0.8,0c-0.3,0-0.5,0-0.7,0.1V94.2z"/>
			</g>
		</g>
		<g id="XMLID_37_">
			<g id="XMLID_38_">
				<path id="XMLID_39_" class="st0" d="M151.5,83.7h6.2c0,0.1,0,0.1,0,0.2c0,0.1,0,0.2,0,0.3c0,0.1,0,0.2,0,0.3c0,0.1,0,0.2,0,0.2
					h-5.1v3.9h4.1c0,0.1,0,0.1,0,0.2c0,0.1,0,0.2,0,0.3c0,0.1,0,0.2,0,0.3c0,0.1,0,0.2,0,0.2h-4.1v4.6h5.2c0,0.1,0,0.1,0,0.2
					c0,0.1,0,0.2,0,0.3c0,0.1,0,0.2,0,0.3c0,0.1,0,0.2,0,0.2h-6.3V83.7z"/>
			</g>
		</g>
		<g id="XMLID_33_">
			<g id="XMLID_34_">
				<path id="XMLID_35_" class="st0" d="M170.9,83.7c0.1,0,0.2,0,0.3,0c0.1,0,0.2,0,0.4,0c0.1,0,0.2,0,0.3,0c0.1,0,0.2,0,0.3,0
					l2.2,10.3l2.6-10.3c0.1,0,0.2,0,0.3,0c0.1,0,0.3,0,0.4,0c0.1,0,0.2,0,0.4,0c0.1,0,0.3,0,0.3,0L181,94l2.3-10.3
					c0.1,0,0.2,0,0.3,0c0.1,0,0.2,0,0.3,0c0.1,0,0.2,0,0.3,0c0.1,0,0.2,0,0.3,0l-2.8,11.5c-0.1,0-0.2,0-0.3,0c-0.1,0-0.3,0-0.4,0
					c-0.1,0-0.2,0-0.4,0c-0.2,0-0.3,0-0.3,0l-2.6-10l-2.6,10c-0.1,0-0.2,0-0.3,0c-0.2,0-0.3,0-0.4,0c-0.1,0-0.2,0-0.4,0
					c-0.2,0-0.3,0-0.3,0L170.9,83.7z"/>
			</g>
		</g>
		<g id="XMLID_29_">
			<g id="XMLID_30_">
				<path id="XMLID_31_" class="st0" d="M190.5,83.7c0.1,0,0.2,0,0.3,0c0.1,0,0.2,0,0.3,0c0.1,0,0.2,0,0.3,0c0.1,0,0.2,0,0.3,0v11.5
					c-0.1,0-0.2,0-0.3,0c-0.1,0-0.2,0-0.3,0c-0.1,0-0.2,0-0.3,0c-0.1,0-0.2,0-0.2,0V83.7z"/>
			</g>
		</g>
		<g id="XMLID_25_">
			<g id="XMLID_26_">
				<path id="XMLID_27_" class="st0" d="M200.5,84.7h-3.1c0-0.1,0-0.1,0-0.2c0-0.1,0-0.2,0-0.3c0-0.1,0-0.2,0-0.3c0-0.1,0-0.2,0-0.2
					h7.3c0,0.1,0,0.1,0,0.2c0,0.1,0,0.2,0,0.3c0,0.1,0,0.2,0,0.3c0,0.1,0,0.2,0,0.2h-3.1v10.5c-0.1,0-0.2,0-0.3,0
					c-0.1,0-0.2,0-0.3,0c-0.1,0-0.2,0-0.3,0c-0.1,0-0.2,0-0.2,0V84.7z"/>
			</g>
		</g>
		<g id="XMLID_21_">
			<g id="XMLID_22_">
				<path id="XMLID_23_" class="st0" d="M210.5,83.7c0.1,0,0.2,0,0.3,0c0.1,0,0.2,0,0.3,0c0.1,0,0.2,0,0.3,0c0.1,0,0.2,0,0.3,0v4.9
					h5.7v-4.9c0.1,0,0.2,0,0.3,0c0.1,0,0.2,0,0.3,0c0.1,0,0.2,0,0.3,0c0.1,0,0.2,0,0.3,0v11.5c-0.1,0-0.1,0-0.2,0
					c-0.1,0-0.2,0-0.3,0c-0.1,0-0.2,0-0.3,0c-0.1,0-0.2,0-0.3,0v-5.6h-5.7v5.6c-0.1,0-0.2,0-0.3,0c-0.1,0-0.2,0-0.3,0
					c-0.1,0-0.2,0-0.3,0c-0.1,0-0.2,0-0.2,0V83.7z"/>
			</g>
		</g>
		<g id="XMLID_17_">
			<g id="XMLID_18_">
				<path id="XMLID_19_" class="st0" d="M233.4,83.7c0.1,0,0.1,0,0.2,0c0.1,0,0.2,0,0.3,0c0.1,0,0.2,0,0.3,0c0.1,0,0.2,0,0.3,0v10.5
					h4.9c0,0.1,0,0.1,0,0.2c0,0.1,0,0.2,0,0.3c0,0.1,0,0.2,0,0.3c0,0.1,0,0.2,0,0.2h-6V83.7z"/>
			</g>
		</g>
		<g id="XMLID_12_">
			<g id="XMLID_13_">
				<path id="XMLID_14_" class="st0" d="M248.9,95.4c-0.8,0-1.5-0.1-2.1-0.4c-0.6-0.3-1.1-0.7-1.5-1.2c-0.4-0.5-0.7-1.2-0.9-1.9
					c-0.2-0.7-0.3-1.5-0.3-2.4c0-0.9,0.1-1.7,0.3-2.4c0.2-0.7,0.5-1.4,0.9-1.9c0.4-0.5,0.9-0.9,1.5-1.2c0.6-0.3,1.3-0.4,2.1-0.4
					c0.8,0,1.5,0.1,2.1,0.4c0.6,0.3,1.1,0.7,1.5,1.2c0.4,0.5,0.7,1.2,0.9,1.9c0.2,0.7,0.3,1.5,0.3,2.4c0,0.9-0.1,1.7-0.3,2.4
					c-0.2,0.7-0.5,1.4-0.9,1.9c-0.4,0.5-0.9,0.9-1.5,1.2C250.4,95.3,249.7,95.4,248.9,95.4z M248.9,94.4c0.6,0,1.2-0.1,1.6-0.4
					c0.4-0.2,0.8-0.6,1.1-1c0.3-0.4,0.5-1,0.7-1.6c0.1-0.6,0.2-1.3,0.2-2c0-0.7-0.1-1.4-0.2-2c-0.1-0.6-0.4-1.1-0.7-1.6
					c-0.3-0.4-0.7-0.8-1.1-1c-0.5-0.2-1-0.4-1.6-0.4c-0.6,0-1.2,0.1-1.6,0.4c-0.5,0.2-0.8,0.6-1.1,1c-0.3,0.4-0.5,1-0.7,1.6
					c-0.1,0.6-0.2,1.3-0.2,2c0,0.7,0.1,1.4,0.2,2c0.1,0.6,0.4,1.1,0.7,1.6c0.3,0.4,0.7,0.8,1.1,1C247.7,94.3,248.3,94.4,248.9,94.4z
					"/>
			</g>
		</g>
		<g id="XMLID_8_">
			<g id="XMLID_9_">
				<path id="XMLID_10_" class="st0" d="M258.6,83.7c0.1,0,0.2,0,0.3,0c0.1,0,0.2,0,0.3,0c0.1,0,0.2,0,0.3,0c0.1,0,0.2,0,0.3,0
					l3.2,10.4l3.2-10.4c0.1,0,0.2,0,0.3,0c0.1,0,0.2,0,0.3,0c0.1,0,0.2,0,0.3,0c0.1,0,0.2,0,0.3,0l-3.8,11.5c-0.1,0-0.2,0-0.3,0
					c-0.1,0-0.3,0-0.4,0c-0.1,0-0.2,0-0.4,0c-0.1,0-0.2,0-0.3,0L258.6,83.7z"/>
			</g>
		</g>
		<g id="XMLID_4_">
			<g id="XMLID_5_">
				<path id="XMLID_6_" class="st0" d="M273.5,83.7h6.2c0,0.1,0,0.1,0,0.2c0,0.1,0,0.2,0,0.3c0,0.1,0,0.2,0,0.3c0,0.1,0,0.2,0,0.2
					h-5.1v3.9h4.1c0,0.1,0,0.1,0,0.2c0,0.1,0,0.2,0,0.3c0,0.1,0,0.2,0,0.3c0,0.1,0,0.2,0,0.2h-4.1v4.6h5.2c0,0.1,0,0.1,0,0.2
					c0,0.1,0,0.2,0,0.3c0,0.1,0,0.2,0,0.3c0,0.1,0,0.2,0,0.2h-6.3V83.7z"/>
			</g>
		</g>
	</g>
</g>
</svg>
