<?xml version="1.0" encoding="utf-8"?>
<!-- Generator: Adobe Illustrator 19.0.0, SVG Export Plug-In . SVG Version: 6.00 Build 0)  -->
<svg version="1.1" id="Layer_1" xmlns="http://www.w3.org/2000/svg" xmlns:xlink="http://www.w3.org/1999/xlink" x="0px" y="0px"
	 viewBox="0 0 280 100" style="enable-background:new 0 0 280 100;" xml:space="preserve">
<style type="text/css">
	.st0{fill:#231F20;}
</style>
<g id="XMLID_2_">
	<g id="XMLID_60_">
		<g id="XMLID_95_">
			<g id="XMLID_96_">
				<path id="XMLID_97_" class="st0" d="M96.5,58.1h-7.3v22.2h-2.4V58.1h-7.3V56h17V58.1z"/>
			</g>
		</g>
		<g id="XMLID_90_">
			<g id="XMLID_91_">
				<path id="XMLID_92_" class="st0" d="M115.3,80.3h-2.6c-0.9-2.2-1.7-4-2.3-5.5c-0.6-1.5-1.2-2.6-1.7-3.5c-0.5-0.9-1-1.5-1.5-1.9
					s-1.1-0.6-1.7-0.6h-3v11.5h-2.4V56h4.5c1,0,2,0,3,0.1c1,0.1,2,0.3,2.9,0.7c0.9,0.4,1.6,1.1,2.2,1.9c0.6,0.9,0.9,2.1,0.9,3.8
					c0,0.6-0.1,1.1-0.2,1.5c-0.2,0.5-0.4,0.9-0.6,1.2c-0.3,0.4-0.5,0.7-0.9,1c-0.3,0.3-0.7,0.5-1,0.7c-0.8,0.4-1.7,0.8-2.7,0.9V68
					c0.8,0.1,1.4,0.4,1.9,0.9c0.5,0.5,0.9,1.1,1.1,1.7L115.3,80.3z M104.9,66.8c0.8,0,1.5-0.1,2.2-0.3c0.7-0.2,1.4-0.5,2-0.8
					c0.6-0.4,1-0.8,1.4-1.3c0.3-0.5,0.5-1.1,0.5-1.8c0-1.1-0.2-2-0.6-2.6c-0.4-0.6-0.8-1-1.4-1.3c-0.6-0.3-1.3-0.4-2-0.5
					c-0.8,0-1.6-0.1-2.4-0.1h-2.2v8.7H104.9z"/>
			</g>
		</g>
		<g id="XMLID_85_">
			<g id="XMLID_86_">
				<path id="XMLID_87_" class="st0" d="M133.8,73.7h-11.9l-2.7,6.6h-2.4l9.9-24.3h2.8l9.4,24.3h-2.4L133.8,73.7z M133,71.6
					l-5.1-13.4h0l-5.1,13.4H133z"/>
			</g>
		</g>
		<g id="XMLID_81_">
			<g id="XMLID_82_">
				<path id="XMLID_83_" class="st0" d="M149.9,77.9L149.9,77.9l8.2-21.9h2.4l-9.2,24.4h-2.6L139.6,56h2.3L149.9,77.9L149.9,77.9z"
					/>
			</g>
		</g>
		<g id="XMLID_77_">
			<g id="XMLID_78_">
				<path id="XMLID_79_" class="st0" d="M166.1,78.2h10.1v2.1h-12.5V56H176c-0.1,0.4-0.1,0.8-0.2,1.1c0,0.3-0.1,0.6-0.1,1h-9.7v8.6
					h9.1v2.1h-9.1V78.2z"/>
			</g>
		</g>
		<g id="XMLID_73_">
			<g id="XMLID_74_">
				<path id="XMLID_75_" class="st0" d="M181.1,80.3V56h2.4v22.3h10v2.1H181.1z"/>
			</g>
		</g>
		<g id="XMLID_69_">
			<g id="XMLID_70_">
				<path id="XMLID_71_" class="st0" d="M196.7,56h2.4v24.3h-2.4V56z"/>
			</g>
		</g>
		<g id="XMLID_65_">
			<g id="XMLID_66_">
				<path id="XMLID_67_" class="st0" d="M204.5,80.3V56h2.9l12.9,21.4V56h2.4v24.4h-3.1l-12.6-21v21H204.5z"/>
			</g>
		</g>
		<g id="XMLID_61_">
			<g id="XMLID_62_">
				<path id="XMLID_63_" class="st0" d="M247.7,67.2v12.1c-0.7,0.3-1.4,0.6-2.1,0.8c-0.7,0.2-1.6,0.4-2.6,0.5
					c-1,0.2-2.3,0.2-3.7,0.2c-0.8,0-1.6-0.1-2.5-0.2c-0.9-0.2-1.8-0.4-2.6-0.8c-0.9-0.4-1.7-0.8-2.5-1.5c-0.8-0.6-1.5-1.4-2.1-2.3
					c-0.6-0.9-1.1-2.1-1.5-3.3c-0.4-1.3-0.5-2.8-0.5-4.5c0-2.5,0.4-4.6,1.2-6.2c0.8-1.6,1.8-2.9,2.9-3.8c1.2-0.9,2.5-1.6,3.8-1.9
					c1.4-0.4,2.7-0.5,3.9-0.5c0.7,0,1.5,0,2.3,0.1c0.8,0.1,1.6,0.2,2.4,0.3c0.8,0.1,1.4,0.3,2.1,0.4c0.6,0.2,1.1,0.3,1.5,0.4v2.2
					c-0.2-0.1-0.6-0.2-1.2-0.4c-0.6-0.2-1.2-0.3-2-0.5c-0.8-0.2-1.6-0.3-2.5-0.4c-0.9-0.1-1.7-0.2-2.6-0.2c-1.3,0-2.5,0.2-3.6,0.5
					c-1.1,0.4-2.1,1-3,1.8c-0.8,0.8-1.5,1.9-2,3.2c-0.5,1.3-0.7,3-0.7,4.9v0c0,2,0.3,3.6,0.7,4.9c0.5,1.3,1.2,2.4,2,3.2
					c0.8,0.8,1.8,1.4,3,1.8c1.1,0.4,2.3,0.5,3.6,0.5c0.9,0,1.7,0,2.3-0.1c0.6,0,1.3-0.1,2-0.2c0.7-0.1,1.2-0.3,1.7-0.6v-8.6h-6v-2.1
					H247.7z"/>
			</g>
		</g>
	</g>
	<g id="XMLID_55_">
		<g id="XMLID_56_">
			<g id="XMLID_57_">
				<path id="XMLID_58_" class="st0" d="M48.6,18.8c0,0.2-0.1,0.3-0.3,0.3h-1.6v15c0,0.4-0.1,0.7-0.3,0.7c-0.2,0-0.4-0.1-0.6-0.4
					L36,20.2v13.6h2.1c0.2,0,0.3,0.1,0.3,0.3c0,0.2-0.2,0.3-0.3,0.3h-4.2c-0.2,0-0.3-0.1-0.3-0.3c0-0.2,0.2-0.3,0.3-0.3h1.4V19.1
					h-1.3c-0.2,0-0.3-0.1-0.3-0.3c0-0.2,0.1-0.3,0.3-0.3H39c0.1,0,0.2,0,0.2,0.1l6.9,10v-9.4h-1.5c-0.2,0-0.3-0.1-0.3-0.3
					c0-0.2,0.1-0.3,0.3-0.3h3.7C48.5,18.4,48.6,18.6,48.6,18.8z"/>
			</g>
		</g>
	</g>
	<g id="XMLID_23_">
		<g id="XMLID_51_">
			<g id="XMLID_52_">
				<path id="XMLID_53_" class="st0" d="M99.5,20.6c0,0.2-0.2,0.4-0.4,0.4H97v20c0,0.6-0.2,0.9-0.4,0.9c-0.3,0-0.5-0.2-0.8-0.6
					L82.6,22.5v18.1h2.8c0.2,0,0.5,0.2,0.5,0.4c0,0.3-0.2,0.4-0.5,0.4h-5.6c-0.2,0-0.4-0.2-0.4-0.4c0-0.2,0.2-0.4,0.4-0.4h1.9V21
					h-1.7c-0.2,0-0.4-0.2-0.4-0.4c0-0.3,0.2-0.4,0.4-0.4h6.5c0.1,0,0.2,0,0.3,0.1l9.2,13.3V21h-2c-0.3,0-0.5-0.2-0.5-0.4
					c0-0.2,0.2-0.4,0.5-0.4h5C99.3,20.2,99.5,20.3,99.5,20.6z"/>
			</g>
		</g>
		<g id="XMLID_47_">
			<g id="XMLID_48_">
				<path id="XMLID_49_" class="st0" d="M116.6,37.1v3.9c0,0.2-0.2,0.4-0.5,0.4h-13.8c-0.3,0-0.4-0.2-0.4-0.4c0-0.2,0.2-0.4,0.4-0.4
					h1.4V21h-1.3c-0.3,0-0.4-0.2-0.4-0.4c0-0.2,0.2-0.4,0.4-0.4H116c0.3,0,0.5,0.2,0.5,0.4v3.5c0,0.3-0.2,0.4-0.5,0.4
					c-0.2,0-0.5-0.2-0.5-0.4v-3h-6.9v9h6.1v-1.7c0-0.3,0.2-0.4,0.5-0.4c0.2,0,0.5,0.2,0.5,0.4v4.1c0,0.3-0.2,0.4-0.4,0.4
					c-0.3,0-0.5-0.2-0.5-0.4v-1.6h-6.1v9.8h7.2v-3.5c0-0.3,0.2-0.5,0.5-0.5C116.4,36.7,116.6,36.8,116.6,37.1z"/>
			</g>
		</g>
		<g id="XMLID_43_">
			<g id="XMLID_44_">
				<path id="XMLID_45_" class="st0" d="M149.4,20.6c0,0.2-0.2,0.4-0.4,0.4h-1.6l-7.1,20.6c-0.1,0.2-0.2,0.3-0.4,0.3
					c-0.2,0-0.3-0.1-0.4-0.3l-5-12.3l-5.7,12.3c-0.1,0.2-0.2,0.3-0.4,0.3s-0.3-0.1-0.4-0.3L119.7,21h-1.2c-0.2,0-0.4-0.2-0.4-0.4
					c0-0.2,0.2-0.4,0.4-0.4h7.5c0.2,0,0.5,0.2,0.5,0.4c0,0.2-0.2,0.4-0.5,0.4H125l5.7,14.1l3.3-6.9l-3-7.3h-1.2
					c-0.2,0-0.4-0.2-0.4-0.4c0-0.2,0.2-0.4,0.4-0.4h7.6c0.2,0,0.5,0.2,0.5,0.5c0,0.2-0.2,0.4-0.5,0.4h-1l5.4,13.2l4.5-13.2h-2
					c-0.2,0-0.4-0.2-0.4-0.4c0-0.2,0.2-0.4,0.4-0.4h4.6C149.2,20.2,149.4,20.3,149.4,20.6z"/>
			</g>
		</g>
		<g id="XMLID_39_">
			<g id="XMLID_40_">
				<path id="XMLID_41_" class="st0" d="M181,20.6c0,0.3-0.2,0.4-0.5,0.4h-1.6L173.4,32v8.7h1.6c0.3,0,0.5,0.2,0.5,0.4
					c0,0.2-0.2,0.4-0.5,0.4H167c-0.2,0-0.4-0.2-0.4-0.4c0-0.2,0.2-0.4,0.4-0.4h1.7v-7.9L161.9,21h-1.2c-0.2,0-0.4-0.2-0.4-0.4
					c0-0.2,0.2-0.4,0.4-0.4h7.7c0.3,0,0.5,0.2,0.5,0.4c0,0.3-0.2,0.4-0.5,0.4h-1.3l5.8,10l5-10h-2c-0.2,0-0.4-0.2-0.4-0.4
					c0-0.3,0.2-0.4,0.4-0.4h4.7C180.9,20.2,181,20.3,181,20.6z"/>
			</g>
		</g>
		<g id="XMLID_34_">
			<g id="XMLID_35_">
				<path id="XMLID_36_" class="st0" d="M204.1,30.8c0,6.6-4.4,11.1-11,11.1c-6.6,0-11.1-4.5-11.1-11.1c0-6.7,4.4-11.2,11.1-11.2
					C199.7,19.7,204.1,24.2,204.1,30.8z M193.1,41.1c2.1,0,3.9-0.5,5.4-1.3V21.9c-1.5-0.9-3.4-1.3-5.4-1.3s-3.9,0.5-5.5,1.3v17.9
					C189.1,40.6,191,41.1,193.1,41.1z"/>
			</g>
		</g>
		<g id="XMLID_29_">
			<g id="XMLID_30_">
				<path id="XMLID_31_" class="st0" d="M225,41.1c0,0.3-0.2,0.4-0.5,0.4h-5.8c-0.3,0-0.5-0.2-0.5-0.5v-9.2h-4.8v8.8h0.9
					c0.3,0,0.4,0.2,0.4,0.4c0,0.2-0.2,0.4-0.4,0.4h-7.3c-0.2,0-0.4-0.2-0.4-0.4c0-0.2,0.2-0.4,0.4-0.4h1.6V21h-1.4
					c-0.3,0-0.4-0.2-0.4-0.5c0-0.2,0.2-0.4,0.4-0.4h10c3.5,0,6,2.1,6,5.9c0,2.3-1.3,4.3-3.1,5.2c1.7,0.6,3,2.3,3,4.2v5.2h1.4
					C224.8,40.6,225,40.8,225,41.1z M218.3,31v-9.9c-0.3,0-0.7-0.1-1-0.1h-3.8v10h4.1C217.8,31,218,31,218.3,31z"/>
			</g>
		</g>
		<g id="XMLID_24_">
			<g id="XMLID_25_">
				<path id="XMLID_26_" class="st0" d="M236.2,41.1c0,0.2-0.2,0.4-0.5,0.4H228c-0.2,0-0.4-0.2-0.4-0.4c0-0.2,0.2-0.4,0.4-0.4h1.5
					V21h-1.3c-0.2,0-0.5-0.2-0.5-0.4c0-0.2,0.2-0.4,0.5-0.4h7.3c0.2,0,0.5,0.2,0.5,0.4c0,0.2-0.2,0.4-0.5,0.4h-1.3v19.6h1.4
					C236,40.6,236.2,40.8,236.2,41.1z M247.9,41.1c0,0.2-0.2,0.4-0.5,0.4h-7.9c-0.2,0-0.4-0.2-0.4-0.4c0-0.2,0.2-0.4,0.4-0.4h1.5
					l-6.3-10c-0.1-0.1-0.1-0.2-0.1-0.3c0-0.1,0-0.2,0.1-0.2l7.1-9.1h-2c-0.2,0-0.4-0.2-0.4-0.4c0-0.2,0.2-0.4,0.4-0.4h5.3
					c0.2,0,0.4,0.2,0.4,0.4c0,0.2-0.2,0.4-0.4,0.4H243l-4.8,6.2l8.5,13.4h0.9C247.7,40.6,247.9,40.8,247.9,41.1z"/>
			</g>
		</g>
	</g>
	<g id="XMLID_18_">
		<g id="XMLID_19_">
			<g id="XMLID_20_">
				<path id="XMLID_21_" class="st0" d="M48.9,66.4c0,0.2-0.1,0.3-0.3,0.3h-1.2l-4.2,8.2v6.5h1.2c0.2,0,0.3,0.2,0.3,0.3
					c0,0.2-0.1,0.3-0.3,0.3h-6.1c-0.2,0-0.3-0.1-0.3-0.3c0-0.2,0.2-0.3,0.3-0.3h1.3v-5.9l-5-8.8h-0.9c-0.2,0-0.3-0.1-0.3-0.3
					c0-0.2,0.2-0.3,0.3-0.3h5.8c0.2,0,0.3,0.1,0.3,0.3c0,0.2-0.1,0.3-0.3,0.3h-1l4.3,7.5l3.8-7.5H45c-0.2,0-0.3-0.1-0.3-0.3
					c0-0.2,0.2-0.3,0.3-0.3h3.5C48.8,66.1,48.9,66.2,48.9,66.4z"/>
			</g>
		</g>
	</g>
	<g id="XMLID_13_">
		<g id="XMLID_14_">
			<path id="XMLID_15_" class="st0" d="M65.5,50.8H16.7V2h48.8V50.8z M17.8,49.6h46.5V3.1H17.8V49.6z"/>
		</g>
	</g>
	<g id="XMLID_8_">
		<g id="XMLID_9_">
			<path id="XMLID_10_" class="st0" d="M262.9,98.4H64.4V2h198.6V98.4z M65.5,97.3h196.3V3.1H65.5V97.3z"/>
		</g>
	</g>
	<g id="XMLID_3_">
		<g id="XMLID_4_">
			<path id="XMLID_5_" class="st0" d="M65.5,98.4H16.7V49.6h48.8V98.4z M17.8,97.3h46.5V50.8H17.8V97.3z"/>
		</g>
	</g>
</g>
</svg>
